<svg width="97" height="53" viewBox="0 0 97 53" fill="none" xmlns="http://www.w3.org/2000/svg">
<path d="M93.7351 2.76538C81.2849 5.87792 69.3232 11.5452 57.5562 16.5399C47.4582 20.8262 37.9125 26.0717 28.3753 31.4761C22.9913 34.527 17.3614 37.4372 12.0837 40.6038" stroke="white" stroke-width="5" stroke-linecap="round"/>
<path d="M11.6676 23.5025C10.6235 25.9111 9.56168 28.3422 8.71147 30.827C7.63389 33.9762 6.77213 37.1954 5.70746 40.3509C4.88613 42.7852 4.02565 45.2292 3.40393 47.7247C3.23901 48.3867 2.8411 49.3815 2.97694 50.0877C3.05467 50.4919 4.5112 49.7686 4.6283 49.7197C6.95122 48.7491 9.3006 47.8435 11.7538 47.253C15.4221 46.3702 19.4276 45.6414 23.2002 46.1" stroke="white" stroke-width="5" stroke-linecap="round"/>
</svg>
